<?xml version="1.0" standalone="no"?>
<!DOCTYPE svg PUBLIC "-//W3C//DTD SVG 20010904//EN"
 "http://www.w3.org/TR/2001/REC-SVG-20010904/DTD/svg10.dtd">
<svg version="1.0" xmlns="http://www.w3.org/2000/svg"
 width="298.000000pt" height="174.000000pt" viewBox="0 0 298.000000 174.000000"
 preserveAspectRatio="xMidYMid meet">

<g transform="translate(0.000000,174.000000) scale(0.100000,-0.100000)"
fill="#000000" stroke="none">
<path d="M592 1468 l-43 -9 50 -62 c98 -124 159 -268 182 -430 l12 -88 50 -25
c42 -22 181 -64 210 -64 6 0 8 43 4 118 -10 212 -83 397 -210 530 l-41 42 -86
-1 c-47 -1 -104 -5 -128 -11z"/>
<path d="M940 1446 c0 -2 16 -28 36 -57 91 -133 143 -299 151 -478 l6 -124 72
6 c39 3 91 11 115 18 l43 13 -5 80 c-13 197 -137 395 -310 494 -53 31 -108 55
-108 48z"/>
<path d="M384 1376 c-118 -79 -222 -230 -258 -372 -17 -67 -22 -274 -7 -274 5
0 14 15 21 34 39 120 232 334 369 411 39 22 71 45 71 51 0 15 -79 121 -117
156 l-29 28 -50 -34z"/>
<path d="M1772 1228 c-12 -6 -32 -27 -44 -46 -12 -19 -79 -219 -148 -444
l-127 -408 52 0 52 0 12 43 c7 23 32 105 56 182 25 77 72 230 106 340 69 226
81 255 109 255 30 0 44 -31 109 -245 33 -110 76 -247 95 -305 18 -58 44 -142
57 -187 l24 -83 54 0 c38 0 52 3 48 13 -2 6 -57 183 -122 392 -126 407 -144
455 -183 485 -28 22 -111 27 -150 8z"/>
<path d="M2323 873 c4 -398 6 -412 69 -475 57 -57 108 -68 330 -68 l188 0 0
40 0 40 -178 0 c-165 0 -181 2 -222 22 -30 16 -50 36 -64 63 -20 38 -21 60
-24 388 l-4 347 -49 0 -50 0 4 -357z"/>
<path d="M541 1113 c-139 -82 -276 -239 -341 -390 -47 -111 -48 -138 -7 -205
36 -59 98 -138 108 -138 4 0 19 34 34 76 51 139 173 299 291 380 l55 38 -7 60
c-8 75 -45 208 -59 213 -6 2 -39 -14 -74 -34z"/>
<path d="M689 745 c-24 -18 -71 -60 -103 -95 -69 -73 -72 -66 54 -130 139 -70
205 -85 375 -85 186 1 216 10 258 78 26 42 80 177 74 184 -2 1 -41 -5 -87 -13
-144 -26 -316 -2 -462 64 l-65 29 -44 -32z"/>
<path d="M451 447 c-17 -41 -33 -92 -37 -113 l-6 -40 54 -26 c93 -46 165 -62
273 -62 120 0 216 25 316 84 107 63 106 66 -29 66 -175 -1 -317 37 -463 124
-37 22 -70 40 -72 40 -3 0 -19 -33 -36 -73z"/>
</g>
</svg>
